<?xml version="1.0" encoding="UTF-8"?>
<svg width="30px" height="30px" viewBox="0 0 30 30" version="1.1" xmlns="http://www.w3.org/2000/svg" xmlns:xlink="http://www.w3.org/1999/xlink">
    <title>Icons/Indication/Alert@svg</title>
    <g id="Icons/Indication/Alert" stroke="none" stroke-width="1" fill="none" fill-rule="evenodd">
        <path d="M17.3291796,6.15901638 L24.4750776,20.4508125 C25.2160454,21.9327479 24.6153723,23.7347671 23.1334369,24.4757348 C22.7168706,24.684018 22.2575314,24.7924532 21.7917961,24.7924532 L7.5,24.7924532 C5.84314575,24.7924532 4.5,23.4493075 4.5,21.7924532 C4.5,21.326718 4.60843528,20.8673788 4.81671843,20.4508125 L11.9626165,6.15901638 C12.7035842,4.67708089 14.5056033,4.07640785 15.9875388,4.8173756 C16.568121,5.1076667 17.0388885,5.57843418 17.3291796,6.15901638 Z" id="Triangle" fill="#FF9000"></path>
        <path d="M13.8365723,17.1910589 L13.5396387,10.4591042 C13.5124447,9.84257405 13.990196,9.32073259 14.6067261,9.29353863 C14.6231292,9.29281512 14.6395462,9.29245324 14.6559651,9.29245324 C15.2716652,9.29245324 15.7707886,9.79157672 15.7707886,10.4072767 C15.7707886,10.4245187 15.7703886,10.4417584 15.769589,10.4589818 L15.4570178,17.1911401 C15.4368979,17.6244823 15.079707,17.9654738 14.645898,17.9654738 C14.2123677,17.9654738 13.8556759,17.6241681 13.8365723,17.1910589 Z M14.6559651,22.2924532 C13.8103276,22.2924532 13.145898,21.663421 13.145898,20.8056497 C13.145898,19.9478785 13.8103276,19.3188462 14.6559651,19.3188462 C15.5016027,19.3188462 16.145898,19.9478785 16.145898,20.8056497 C16.145898,21.663421 15.5016027,22.2924532 14.6559651,22.2924532 Z" id="!" fill="#FFFFFF" transform="translate(14.645898, 15.792453) rotate(-360.000000) translate(-14.645898, -15.792453) "></path>
    </g>
</svg>