<svg id="SvgjsSvg1001" width="288" height="288" xmlns="http://www.w3.org/2000/svg" version="1.1" xmlns:xlink="http://www.w3.org/1999/xlink" xmlns:svgjs="http://svgjs.com/svgjs"><defs id="SvgjsDefs1002"></defs><g id="SvgjsG1008" transform="matrix(0.9167,0,0,0.9167,11.995200635528562,11.995200635528562)"><svg xmlns="http://www.w3.org/2000/svg" width="288" height="288" viewBox="0 0 30 30"><path fill="#ffffff" fill-rule="evenodd" d="M15,4 C21.0751322,4 26,8.92486775 26,15 C26,21.0751322 21.0751322,26 15,26 C8.92486775,26 4,21.0751322 4,15 C4,8.92486775 8.92486775,4 15,4 Z M15.0110738,18.8790323 C14.0808725,18.8790323 13.35,19.5709677 13.35,20.5145161 C13.35,21.4580645 14.0808725,22.15 15.0110738,22.15 C15.9412752,22.15 16.65,21.4580645 16.65,20.5145161 C16.65,19.5709677 15.9412752,18.8790323 15.0110738,18.8790323 Z M15.0110738,7.85 C14.9930129,7.85 14.9749542,7.85039807 14.9569109,7.85119393 C14.2787278,7.88110729 13.7532013,8.45513289 13.7831147,9.133316 L13.7831147,9.133316 L14.1097417,16.5384663 C14.1307557,17.0148864 14.5231167,17.3903226 15,17.3903226 C15.4771898,17.3903226 15.8700999,17.0152319 15.8922317,16.5385556 L15.8922317,16.5385556 L16.23606,9.13318142 C16.2369397,9.11423565 16.2373797,9.09527203 16.2373797,9.07630585 C16.2373797,8.39903583 15.6883438,7.85 15.0110738,7.85 Z" class="colorF33 svgShape"></path></svg></g></svg>